<!-- Generated by IcoMoon.io -->
<svg version="1.1" xmlns="http://www.w3.org/2000/svg" width="8320" height="1024" viewBox="0 0 8320 1024">
<g id="icomoon-ignore">
</g>
<path fill="#e7e7e7" d="M6739.776 161.505h1438.336l141.952-161.098h-2059.744l-571.507 974.243h1334.803l95.872-161.094h-763.277l145.741-245.472h763.264l92.096-161.098h-759.488l141.952-245.481zM5638.95 406.986h-567.674l92.051-157.258c38.362-65.207 72.877-88.223 130.413-88.223 57.542 0 76.704 46.031 46.035 103.571h579.168l57.542-103.571c42.189-76.716 42.189-161.098-61.37-161.098h-1020.275c-92.051 0-164.934 11.508-218.637 99.731l-180.275 306.849c-49.856 88.223-46.016 161.098 76.717 161.098h586.842l-95.891 168.768c-26.842 46.029-61.382 76.704-141.914 76.704-69.043 0-65.203-46.035-34.522-92.051h-575.347l-69.043 115.066c-42.182 72.877-7.667 138.080 92.051 138.080h1012.608c92.051 0 172.589-42.189 218.637-118.906l172.595-287.661c38.374-72.875 19.187-161.098-99.712-161.098z"></path>
<path fill="#e7e7e7" d="M8103.104 189.889c-46.784 0-84.736 36.799-84.736 81.754 0 45.885 37.952 82.684 84.736 82.684 46.592 0 84.352-36.799 84.352-82.684 0-44.955-37.76-81.754-84.352-81.754zM8103.104 338.256c-38.208 0-68.672-29.118-68.672-66.614 0-36.333 30.464-65.684 68.672-65.684 37.76 0 68.288 29.35 68.288 65.684 0 37.496-30.528 66.614-68.288 66.614zM4330.963 0.406h-866.848c-118.906 0-272.333 0-364.384 161.098l-383.565 652.051c-53.702 88.218-7.667 161.094 92.051 161.094h1008.768c103.571 0 168.762-30.682 249.318-161.094l383.565-652.051c49.85-84.383-26.854-161.098-118.906-161.098zM3843.84 249.727l-287.674 487.124c-38.362 69.043-72.877 76.704-161.094 76.704-88.224 0-111.245-30.688-84.384-76.704l291.501-487.124c42.189-72.875 92.051-88.223 164.922-88.223 72.902 0 115.078 23.016 76.73 88.223zM2812.058 0.406h-1112.339l-479.443 813.149h-1058.627l-161.649 161.094h2298.093c141.907 0 187.942-69.050 218.624-122.733l115.066-199.462c30.682-53.699 30.682-115.067-30.682-149.578 61.485 0 145.747-42.191 195.622-130.414l115.066-195.61c57.523-95.903-11.507-176.446-99.731-176.446zM2240.55 656.294l-57.536 92.051c-15.341 30.694-42.195 65.21-107.398 65.21h-283.834l145.843-245.472h276.083c49.856 0 49.856 46.032 26.842 88.211zM2482.195 249.727l-57.542 92.051c-15.347 30.684-42.189 65.208-107.398 65.208h-283.834l145.754-245.481h276.16c49.875 0 49.875 46.031 26.861 88.223z"></path>
<path fill="#e7e7e7" d="M8146.432 250.227c0-7.68-3.52-15.837-10.496-19.8-7.232-3.962-15.104-4.427-23.040-4.427h-41.28v92.002h14.016v-42.387h16.576l27.008 42.387h16.064l-28.672-42.387c16.768-0.465 29.824-7.228 29.824-25.388zM8100.992 264.193h-15.36v-27.724h24.448c11.904 0 22.336 1.626 22.336 13.514 0 16.547-18.112 14.211-31.424 14.211z"></path>
</svg>
